<?xml version="1.0" standalone="no"?>
<!DOCTYPE svg PUBLIC "-//W3C//DTD SVG 20010904//EN"
 "http://www.w3.org/TR/2001/REC-SVG-20010904/DTD/svg10.dtd">
<svg version="1.0" xmlns="http://www.w3.org/2000/svg"
 width="512.000000pt" height="512.000000pt" viewBox="0 0 512.000000 512.000000"
 preserveAspectRatio="xMidYMid meet">
<metadata>
Created by potrace 1.11, written by Peter Selinger 2001-2013
</metadata>
<g transform="translate(0.000000,512.000000) scale(0.100000,-0.100000)"
fill="#000000" stroke="none">
<path d="M2365 5114 c-363 -37 -636 -113 -930 -258 -272 -134 -460 -268 -679
-484 -396 -391 -644 -885 -733 -1462 -21 -142 -25 -528 -5 -665 59 -412 189
-763 406 -1095 88 -134 189 -257 319 -389 213 -215 413 -359 692 -497 257
-127 507 -203 810 -246 118 -17 512 -17 630 0 598 85 1094 331 1502 743 403
408 641 895 725 1484 17 118 17 512 0 630 -96 677 -409 1241 -927 1671 -336
279 -790 477 -1255 549 -101 15 -467 28 -555 19z m191 -821 c-3 -10 -37 -189
-76 -398 -39 -209 -74 -390 -77 -402 l-5 -23 200 0 c183 0 201 2 206 18 3 9
39 197 81 417 42 220 77 401 79 402 2 2 104 2 228 1 l224 -3 -78 -405 c-42
-223 -77 -411 -78 -417 0 -10 55 -13 245 -13 l245 0 0 -220 0 -220 -288 0
-288 0 -47 -232 c-26 -128 -47 -236 -47 -240 0 -5 119 -8 265 -8 l265 0 0
-215 0 -215 -307 0 -308 0 -79 -420 -80 -420 -233 0 -233 0 5 23 c8 33 155
803 155 811 0 3 -88 6 -195 6 -194 0 -195 0 -200 -22 -3 -13 -37 -192 -75
-398 -38 -206 -72 -385 -75 -398 l-5 -22 -225 0 c-152 0 -225 3 -225 11 0 10
136 766 145 807 l5 22 -245 0 -245 0 0 215 0 215 285 0 285 0 5 23 c3 12 23
112 45 222 22 110 43 208 46 218 5 16 -12 17 -261 17 l-265 0 2 218 3 217 301
3 300 2 79 420 79 420 234 0 c218 0 233 -1 228 -17z"/>
<path d="M2315 3018 c-2 -7 -22 -107 -45 -223 -23 -115 -43 -218 -46 -227 -5
-17 9 -18 195 -18 111 0 201 3 201 8 0 4 20 105 45 225 25 120 45 224 45 232
0 13 -31 15 -195 15 -148 0 -197 -3 -200 -12z"/>
</g>
</svg>
